<?xml version="1.0" encoding="UTF-8" standalone="no"?>
<!-- Created with Inkscape (http://www.inkscape.org/) -->

<svg
   width="178mm"
   height="64mm"
   viewBox="0 0 178 64"
   version="1.1"
   id="svg1"
   inkscape:version="1.4.2 (f4327f4, 2025-05-13)"
   sodipodi:docname="Logo.svg"
   xmlns:inkscape="http://www.inkscape.org/namespaces/inkscape"
   xmlns:sodipodi="http://sodipodi.sourceforge.net/DTD/sodipodi-0.dtd"
   xmlns="http://www.w3.org/2000/svg"
   xmlns:svg="http://www.w3.org/2000/svg"
   xmlns:rdf="http://www.w3.org/1999/02/22-rdf-syntax-ns#"
   xmlns:cc="http://creativecommons.org/ns#"
   xmlns:dc="http://purl.org/dc/elements/1.1/">
  <title
     id="title1">Logo - Defector</title>
  <sodipodi:namedview
     id="namedview1"
     pagecolor="#ffffff"
     bordercolor="#666666"
     borderopacity="1.0"
     inkscape:showpageshadow="2"
     inkscape:pageopacity="0.0"
     inkscape:pagecheckerboard="true"
     inkscape:deskcolor="#d1d1d1"
     inkscape:document-units="mm"
     inkscape:zoom="1.6038506"
     inkscape:cx="350.09495"
     inkscape:cy="120.64715"
     inkscape:current-layer="layer1">
    <inkscape:page
       x="0"
       y="0"
       width="178"
       height="64"
       id="page8"
       margin="0"
       bleed="0" />
  </sodipodi:namedview>
  <defs
     id="defs1">
    <filter
       id="selectable_hidder_filter"
       width="1"
       height="1"
       x="0"
       y="0"
       style="color-interpolation-filters:sRGB;"
       inkscape:label="LPE boolean visibility">
      <feComposite
         id="boolops_hidder_primitive"
         result="composite1"
         operator="arithmetic"
         in2="SourceGraphic"
         in="BackgroundImage" />
    </filter>
    <inkscape:path-effect
       effect="bool_op"
       operand-path=""
       id="path-effect2"
       is_visible="false"
       lpeversion="1"
       operation="cut"
       swap-operands="false"
       filltype-this="from-curve"
       filter=""
       filltype-operand="from-curve" />
    <inkscape:path-effect
       effect="tiling"
       id="path-effect1"
       is_visible="true"
       lpeversion="1.3.1"
       unit="px"
       seed="1;-1862620512"
       lpesatellites=""
       num_rows="3"
       num_cols="3"
       gapx="8"
       gapy="35"
       offset="1"
       offset_type="false"
       scale="-70"
       rotate="8"
       mirrorrowsx="false"
       mirrorrowsy="false"
       mirrorcolsx="false"
       mirrorcolsy="false"
       mirrortrans="false"
       shrink_interp="false"
       split_items="false"
       link_styles="false"
       interpolate_scalex="false"
       interpolate_scaley="false"
       interpolate_rotatex="false"
       interpolate_rotatey="false"
       random_scale="true"
       random_rotate="true"
       random_gap_y="true"
       random_gap_x="true"
       transformorigin="" />
  </defs>
  <g
     inkscape:label="obj"
     inkscape:groupmode="layer"
     id="layer1"
     style="opacity:1;mix-blend-mode:normal">
    <rect
       style="display:none;opacity:1;mix-blend-mode:normal;fill:#920000;fill-opacity:1;stroke:#ffffff;stroke-width:0.287513;stroke-linecap:round;stroke-linejoin:miter;stroke-miterlimit:8;stroke-dasharray:none;stroke-opacity:1;paint-order:stroke fill markers"
       id="rect8"
       width="174.97144"
       height="57.977253"
       x="1.0294358"
       y="1.9307218" />
    <g
       id="g84"
       inkscape:label="text-edit">
      <path
         d="m 157.51338,11.021549 9.90741,0.264584 -0.20774,-0.602547 z"
         style="stroke:#ffffff;stroke-width:0.79375;fill:#000000;fill-opacity:1;stroke-dasharray:none;paint-order:stroke fill markers;stroke-linecap:square;stroke-linejoin:bevel"
         id="path84" />
      <path
         d="m 159.07556,39.07255 -2.46238,-0.16278 -0.2465,9.320878 z"
         style="stroke:#ffffff;stroke-width:0.79375;fill:#000000;fill-opacity:1;stroke-dasharray:none;paint-order:stroke fill markers;stroke-linecap:square;stroke-linejoin:bevel"
         id="path83" />
      <path
         d="m 168.61245,14.747937 -11.35332,-0.303341 -0.18086,6.855913 7.51944,0.0739 -0.0217,2.22312 -7.55664,-0.07441 -0.3266,12.368237 3.25975,0.215491 1.57251,-5.315955 5.00848,5.750554 2.71922,0.179834 -0.18087,2.734717 5.71696,6.56394 -9.33379,-18.176152 4.6669,-8.711096 z"
         style="stroke:#ffffff;stroke-width:0.79375;fill:#000000;fill-opacity:1;stroke-dasharray:none;paint-order:stroke fill markers;stroke-linecap:square;stroke-linejoin:bevel"
         id="path82" />
      <path
         d="m 149.01571,21.221444 -5.47873,-2.644283 -2.96675,2.5616 z"
         style="stroke:#ffffff;stroke-width:0.79375;fill:#000000;fill-opacity:1;stroke-dasharray:none;paint-order:stroke fill markers;stroke-linecap:square;stroke-linejoin:bevel"
         id="path81" />
      <path
         d="m 151.23108,38.554236 -15.05645,-0.995288 0.19896,-3.010669 18.07641,1.194759 0.7059,-11.557951 -1.43867,-0.694531 -13.41572,-0.131775 0.0196,-2.005046 -5.77949,4.990393 v 12.381674 l 11.00605,4.402832 z"
         style="stroke:#ffffff;stroke-width:0.79375;fill:#000000;fill-opacity:1;stroke-dasharray:none;paint-order:stroke fill markers;stroke-linecap:square;stroke-linejoin:bevel"
         id="path80" />
      <path
         d="m 107.395,4.9226969 2.98534,1.1043254 7.94629,-0.4774902 0.2098,3.4943603 6.78925,2.5109576 0.24547,31.573784 1.96525,7.368542 2.94763,-6.877616 1.71927,-32.310173 0.97048,-0.203605 0.0196,-0.734322 3.0856,0.08268 15.81971,-3.3207273 z"
         style="stroke:#ffffff;stroke-width:0.79375;fill:#000000;fill-opacity:1;stroke-dasharray:none;paint-order:stroke fill markers;stroke-linecap:square;stroke-linejoin:bevel"
         id="path79" />
      <path
         d="m 98.385209,20.556368 7.080701,-0.232027 0.45321,-1.271757 12.4318,-7.628475 -18.647962,4.520654 z"
         style="stroke:#ffffff;stroke-width:0.79375;fill:#000000;fill-opacity:1;stroke-dasharray:none;paint-order:stroke fill markers;stroke-linecap:square;stroke-linejoin:bevel"
         id="path78" />
      <path
         d="m 100.19698,41.29412 8.22379,-0.444417 -1.93683,-0.888835 -5.5423,-6.942212 2.84686,-7.988142 -6.744294,0.220658 -2.426726,8.493538 z"
         style="stroke:#ffffff;stroke-width:0.79375;fill:#000000;fill-opacity:1;stroke-dasharray:none;paint-order:stroke fill markers;stroke-linecap:square;stroke-linejoin:bevel"
         id="path77" />
      <path
         d="m 117.83053,45.166752 -14.20378,0.767395 0.59686,0.807703 18.02629,0.452169 z"
         style="stroke:#ffffff;stroke-width:0.79375;fill:#000000;fill-opacity:1;stroke-dasharray:none;paint-order:stroke fill markers;stroke-linecap:square;stroke-linejoin:bevel"
         id="path76" />
      <path
         d="m 88.804399,46.735649 -14.632182,0.790649 0.0186,1.702738 25.146269,-0.84801 z"
         style="stroke:#ffffff;stroke-width:0.79375;fill:#000000;fill-opacity:1;stroke-dasharray:none;paint-order:stroke fill markers;stroke-linecap:square;stroke-linejoin:bevel"
         id="path75" />
      <path
         d="m 50.159212,13.575916 -0.0057,1.129646 3.180167,0.05891 -0.06046,3.24373 -3.135726,-0.05839 -0.02894,5.815149 5.038452,-0.142627 0.07596,-2.369365 16.689937,-6.386173 z"
         style="stroke:#ffffff;stroke-width:0.79375;fill:#000000;fill-opacity:1;stroke-dasharray:none;paint-order:stroke fill markers;stroke-linecap:square;stroke-linejoin:bevel"
         id="path74" />
      <path
         d="m 55.01318,27.793652 -4.925798,0.139527 -0.04651,9.328629 3.635437,0.270268 -0.261483,3.518132 -3.391524,-0.252181 -0.07751,15.5236 5.968111,-21.720638 9.717236,-4.704106 -10.692887,0.223242 z"
         style="stroke:#ffffff;stroke-width:0.79375;fill:#000000;fill-opacity:1;stroke-dasharray:none;paint-order:stroke fill markers;stroke-linecap:square;stroke-linejoin:bevel"
         id="path73" />
      <path
         d="M 25.151953,38.950077 24.765413,49.963359 46.309318,49.275028 30.201774,45.027743 30.70717,39.362972 Z"
         style="stroke:#ffffff;stroke-width:0.79375;paint-order:stroke fill markers;fill:#000000;fill-opacity:1;stroke-dasharray:none;stroke-linecap:square;stroke-linejoin:bevel"
         id="path72" />
      <path
         d="m 25.660966,24.458455 5.601208,-0.159163 0.472323,-3.439067 9.021155,-3.084049 -14.850256,-0.275435 z"
         style="stroke:#ffffff;stroke-width:0.79375;paint-order:stroke fill markers;fill:#000000;fill-opacity:1;stroke-dasharray:none;stroke-linecap:square;stroke-linejoin:bevel"
         id="path71" />
      <path
         d="m 32.301904,35.943542 6.197038,-3.981669 -8.150924,-1.00924 0.338998,-2.4691 -5.172294,0.146761 -0.238745,6.791317 z"
         style="stroke:#ffffff;stroke-width:0.79375;paint-order:stroke fill markers;fill:#000000;fill-opacity:1;stroke-dasharray:none;stroke-linecap:square;stroke-linejoin:bevel"
         id="path70" />
      <path
         d="m 19.8422,35.018018 2.074808,-3.594096 -1.703772,-2.64325 -7.756115,0.220142 -0.117822,-4.164604 5.235856,-0.148311 -2.488221,-3.86023 -9.3844397,1.23455 v 25.711609 l 7.2796587,-0.874365 4.90151,-8.489404 -2.889746,-0.214974 0.261483,-3.518132 z"
         style="opacity:1;stroke:#ffffff;stroke-width:0.79375;stroke-miterlimit:8;paint-order:stroke fill markers;fill:#000000;fill-opacity:1;stroke-dasharray:none;stroke-linecap:square;stroke-linejoin:bevel"
         id="path69" />
      <path
         d="m 80.845711,25.781372 -6.906555,0.226343 0.180868,16.695622 7.230566,-0.390674 0.258382,-8.700761 11.969295,-3.878316 -12.714469,-1.978174 z"
         style="stroke:#ffffff;stroke-width:0.79375;fill:#000000;fill-opacity:1;stroke-dasharray:none;paint-order:stroke fill markers;stroke-linecap:square;stroke-linejoin:bevel"
         id="path68" />
      <path
         d="m 89.74646,11.979631 -15.948381,0.958081 0.09095,8.420674 6.913273,-0.226343 -0.04599,-4.960937 18.930111,-3.107821 z"
         style="stroke:#ffffff;stroke-width:0.79375;fill:#000000;fill-opacity:1;stroke-dasharray:none;paint-order:stroke fill markers;stroke-linecap:square;stroke-linejoin:bevel"
         id="path67" />
    </g>
    <g
       id="g66"
       inkscape:label="text"
       clip-path="none"
       mask="none"
       style="display:none">
      <path
         style="opacity:1;fill:#000000;fill-opacity:1;stroke:#000000;stroke-width:1.39885;stroke-linecap:butt;stroke-linejoin:miter;stroke-miterlimit:8;stroke-dasharray:none;stroke-opacity:1;paint-order:stroke fill markers"
         d="m 5.7024372,47.773915 v -25.71147 l 9.3844288,-1.23495 6.830035,10.59638 -8.934894,15.47569 z"
         id="path59"
         sodipodi:nodetypes="cccccc" />
      <path
         style="fill:#000000;fill-opacity:1;stroke:#000000;stroke-width:0.215207;stroke-linecap:butt;stroke-linejoin:miter;stroke-dasharray:none;stroke-opacity:1;paint-order:stroke fill markers"
         d="m 25.934729,16.658606 20.291372,-0.752441 -14.491455,4.95386 -1.38667,10.09244 8.150989,1.00918 -7.565433,4.86138 -0.731833,8.20491 16.107719,4.247223 -21.544171,0.688183 z"
         id="path60"
         sodipodi:nodetypes="cccccccccc" />
      <path
         style="fill:#000000;fill-opacity:1;stroke:#000000;stroke-width:0.215207px;stroke-linecap:butt;stroke-linejoin:miter;stroke-opacity:1"
         d="m 49.945564,56.321423 0.213825,-42.745259 21.753687,1.290769 -16.690044,6.385852 -0.284997,8.86747 10.693289,-0.22351 -9.717172,4.704295 z"
         id="path61"
         sodipodi:nodetypes="cccccccc" />
      <path
         style="fill:#000000;fill-opacity:1;stroke:#000000;stroke-width:0.215207px;stroke-linecap:butt;stroke-linejoin:miter;stroke-opacity:1"
         d="m 74.190771,49.228855 25.146265,-0.84762 -18.082715,-2.82544 0.354496,-11.943715 11.969591,-3.878725 -12.714383,-1.97781 -0.107751,-11.58428 18.930324,-3.107981 -25.918,-2.825441 z"
         id="path62"
         sodipodi:nodetypes="cccccccccc" />
      <path
         style="fill:#000000;fill-opacity:1;stroke:#000000;stroke-width:0.215207px;stroke-linecap:butt;stroke-linejoin:miter;stroke-opacity:1"
         d="m 118.35094,11.423954 -18.647935,4.520701 -5.085782,17.80024 9.606497,12.997 18.02632,0.45207 -15.76596,-7.23311 -5.54262,-6.94212 4.97753,-13.9661 z"
         id="path63"
         sodipodi:nodetypes="ccccccccc" />
      <path
         style="fill:#000000;fill-opacity:1;stroke:#000000;stroke-width:0.264583px;stroke-linecap:butt;stroke-linejoin:miter;stroke-opacity:1"
         d="m 125.57129,43.128505 1.96501,7.3688 2.94752,-6.87755 1.71939,-32.310588 19.89575,-4.1756507 -44.70406,-2.21064 17.93077,6.6319207 z"
         id="path64"
         sodipodi:nodetypes="cccccccc" />
      <path
         style="fill:#000000;fill-opacity:1;stroke:#000000;stroke-width:0.296388px;stroke-linecap:butt;stroke-linejoin:miter;stroke-opacity:1"
         d="m 143.53693,18.576995 -8.9951,7.76709 v 12.381878 l 11.00612,4.402453 8.88802,-7.153977 0.72018,-11.789108 z"
         id="path65"
         sodipodi:nodetypes="ccccccc" />
      <path
         style="fill:#000000;fill-opacity:1;stroke:#000000;stroke-width:0.264583px;stroke-linecap:butt;stroke-linejoin:miter;stroke-opacity:1"
         d="m 156.3669,48.230615 0.98251,-37.203352 9.86379,-0.34387 2.90879,8.449542 -4.66691,8.71067 9.33381,18.17637 -13.26383,-15.22885 z"
         id="path66"
         sodipodi:nodetypes="cccccccc" />
    </g>
  </g>
  <metadata
     id="metadata1">
    <rdf:RDF>
      <cc:Work
         rdf:about="">
        <dc:title>Logo - Defector</dc:title>
      </cc:Work>
    </rdf:RDF>
  </metadata>
</svg>
